<?xml version="1.0" encoding="utf-8" ?>
<svg xmlns="http://www.w3.org/2000/svg" xmlns:xlink="http://www.w3.org/1999/xlink" width="1428" height="1428">
	<defs>
		<linearGradient id="gradient_0" gradientUnits="userSpaceOnUse" x1="385.38596" y1="305.48846" x2="84.271889" y2="117.08866">
			<stop offset="0" stop-color="#231F3D"/>
			<stop offset="1" stop-color="#455D65"/>
		</linearGradient>
	</defs>
	<path fill="url(#gradient_0)" transform="scale(2.85569 2.85569)" d="M260.848 59.3089C276.711 59.1727 292.659 59.0121 308.518 59.2963C312.793 59.3729 317.048 59.847 321.326 59.9375C329.333 60.1068 340.309 59.4292 347.897 60.8168C362.591 63.5039 379.486 70.7227 390.259 81.2921C406.197 96.9286 410.667 115.038 410.804 136.778Q410.931 146.943 410.845 157.108Q411.247 212.733 411.074 268.36L411.015 296.472C410.998 305.393 411.438 314.339 409.569 323.118C406.662 336.766 400.59 348.954 390.651 358.851C366.262 383.137 332.738 381.282 300.902 381.165C294.644 381.142 288.35 381.173 282.095 380.99L175.728 380.97C148.575 380.775 127.715 378.519 107.577 358.062C98.5284 348.87 92.3935 338.957 89.235 326.366C86.0538 313.685 87.3522 293.455 87.2474 280.123Q86.8821 239.051 87.0766 197.979C86.9802 190.054 87.0552 182.121 87.0798 174.196C86.8938 166.615 87.0338 158.996 87.0313 151.411C87.029 144.721 86.8314 137.981 87.1902 131.299C87.8166 119.629 91.5839 104.812 97.6971 94.799C101.32 88.8648 106.555 83.1856 111.735 78.5633C121.55 69.8044 133.515 64.1411 146.356 61.4942C148.489 61.0545 150.653 60.483 152.824 60.2916C161.847 59.4961 172.706 60.1038 181.964 59.9615C186.067 59.8984 190.141 59.4112 194.24 59.3329C202.967 59.1662 211.663 59.5162 220.375 59.9787Q240.602 59.0459 260.848 59.3089Z"/>
	<path fill="#3C505D" transform="scale(2.85569 2.85569)" d="M87.0798 174.196L87.3985 173.959C87.7889 174.928 87.7619 184.262 87.9171 186.322C88.0291 184.281 88.1051 182.216 88.5651 180.218L88.8206 180.111C88.9956 180.597 88.9426 180.916 88.907 181.42C88.8258 182.567 89.3666 183.441 89.3831 184.596C89.4118 186.614 88.9374 188.493 89.435 190.5C89.2089 190.422 88.9828 190.351 88.7641 190.254C88.3587 191.152 88.7043 192.116 88.2807 193.031C88.0073 191.864 88.3353 190.681 88.0239 189.574L87.6359 189.778C87.5521 191.98 88.3297 196.192 87.0766 197.979C86.9802 190.054 87.0552 182.121 87.0798 174.196Z"/>
	<path fill="#A5B19E" transform="scale(2.85569 2.85569)" d="M290.377 73.1695C296.315 73.8869 309.725 75.3261 313.683 79.7566C313.625 79.8485 313.59 79.9592 313.51 80.0324C313.156 80.3552 312.954 80.2269 312.547 80.1729C308.818 79.6785 305.14 78.5259 301.443 77.8066C297.759 77.0898 294.006 76.83 290.323 76.0967L290.071 75.9245C289.952 74.9255 290.085 74.1227 290.377 73.1695Z"/>
	<defs>
		<linearGradient id="gradient_1" gradientUnits="userSpaceOnUse" x1="146.05054" y1="169.49236" x2="154.89366" y2="183.78076">
			<stop offset="0" stop-color="#1C173F"/>
			<stop offset="1" stop-color="#262E4F"/>
		</linearGradient>
	</defs>
	<path fill="url(#gradient_1)" transform="scale(2.85569 2.85569)" d="M147.303 167.558C149.093 169.034 151 170.31 153.005 171.476C153.684 173.189 155.267 174.124 156.241 175.61C156.655 176.243 156.78 177.001 157.197 177.639C154.87 180.568 152.63 183.912 150.804 187.18C150.534 186.769 150.263 186.346 150.064 185.895C149.147 183.815 146.654 169.287 147.303 167.558Z"/>
	<path fill="#A5B19E" transform="scale(2.85569 2.85569)" d="M181.403 78.853C181.624 79.0709 181.87 79.1989 182.135 79.3573C185.611 79.3622 189.398 79.2647 192.744 78.2838C192.806 80.8856 192.294 94.3167 192.938 95.4088C189.047 96.4441 184.98 97.2553 181.209 98.6719C181.016 98.5288 180.922 98.3267 180.794 98.1262C180.653 96.3019 180.478 79.8103 180.686 79.2926C180.826 78.945 181.08 78.9676 181.403 78.853Z"/>
	<path fill="#3C505D" transform="scale(2.85569 2.85569)" d="M220.375 59.9787Q240.602 59.0459 260.848 59.3089Q261.992 59.5578 263.149 59.7386C261.428 59.7427 259.27 59.4929 257.605 59.8423C258.511 60.9051 260.401 62.4772 260.853 63.7355C260.547 64.1586 260.208 64.505 259.837 64.8713C259.853 65.2511 259.917 65.4976 260.02 65.8704C260.264 66.7543 260.304 68.3772 259.846 69.2099C259.557 69.7358 259.143 70.0409 258.543 70.1314C257.849 70.2361 257.022 70.0733 256.306 70.0901C259.013 70.6761 261.551 69.8127 264.304 70.7973C258.388 70.7247 252.474 70.4503 246.557 70.5518C241.326 70.6415 235.97 71.1369 230.755 70.9902C232.143 70.05 234.511 70.5818 236.157 70.4406C236.18 70.4386 236.815 70.3747 236.888 70.3813C236.994 70.3909 237.094 70.4331 237.197 70.459C236.783 70.292 236.426 70.1238 235.979 70.0831C235.858 70.0721 235.737 70.0708 235.617 70.0577C234.328 69.9182 233.276 69.6758 232.468 68.6095L232.862 67.9016C231.633 65.8756 231.11 63.5191 229.921 61.4948C228.575 59.2019 223.132 60.7824 220.568 60.0391C220.503 60.0203 220.439 59.9988 220.375 59.9787Z"/>
	<path fill="#889A8F" transform="scale(2.85569 2.85569)" d="M180.281 121.895C184.371 121.145 188.296 119.611 192.414 118.869Q192.712 124.667 192.776 130.473C192.817 134.148 192.174 143.969 193.199 146.907C190.781 148.251 188.397 149.627 186.058 151.106C184.461 152.116 182.677 153.547 180.953 154.259C179.943 151.244 180.578 137.035 180.584 132.946Q180.589 127.416 180.281 121.895Z"/>
	<path fill="#BABFA5" transform="scale(2.85569 2.85569)" d="M192.414 118.869C197.235 117.629 202.54 116.685 207.492 116.339C207.185 117.832 207.45 119.641 207.525 121.168C207.908 123.593 207.717 126.065 207.847 128.511C208.021 131.784 209.039 135.758 210.089 138.853C209.165 139.286 208.243 139.764 207.272 140.08C204.735 141.374 202.032 142.325 199.479 143.595C197.419 144.62 195.322 146.069 193.199 146.907C192.174 143.969 192.817 134.148 192.776 130.473Q192.712 124.667 192.414 118.869Z"/>
	<path fill="#F5EFBE" transform="scale(2.85569 2.85569)" d="M207.525 121.168C207.908 123.593 207.717 126.065 207.847 128.511C208.021 131.784 209.039 135.758 210.089 138.853C209.165 139.286 208.243 139.764 207.272 140.08C207.197 133.778 207.481 127.472 207.525 121.168Z"/>
	<defs>
		<linearGradient id="gradient_2" gradientUnits="userSpaceOnUse" x1="339.26489" y1="337.49789" x2="335.75403" y2="312.5589">
			<stop offset="0" stop-color="#A6B7A2"/>
			<stop offset="1" stop-color="#D3D4B9"/>
		</linearGradient>
	</defs>
	<path fill="url(#gradient_2)" transform="scale(2.85569 2.85569)" d="M341.112 310.964Q342.005 311.533 342.888 312.119C347.162 314.957 349.927 317.569 350.986 322.779C351.028 324.932 350.882 326.921 350.453 329.033C349.239 331.883 347.294 334.153 344.725 335.875C341.336 338.146 337.463 338.612 333.531 337.795C329.569 336.972 326.899 335.173 324.677 331.805C325.21 330.297 326.223 328.945 327.092 327.611C328.584 325.323 330.045 322.995 331.905 320.984C335.437 317.167 338.085 315.673 341.112 310.964Z"/>
	<path fill="#1C183B" transform="scale(2.85569 2.85569)" d="M336.493 320.024C337.44 319.962 338.405 319.923 339.339 320.131C340.822 320.461 342.219 321.406 342.957 322.75Q343.076 322.971 343.171 323.203Q343.267 323.435 343.338 323.675Q343.409 323.916 343.455 324.162Q343.502 324.409 343.522 324.659Q343.543 324.909 343.537 325.159Q343.532 325.41 343.501 325.659Q343.47 325.908 343.414 326.152Q343.357 326.397 343.276 326.634C342.589 328.675 340.994 329.681 339.194 330.627C338.266 330.824 337.412 331.01 336.472 330.765C335.021 330.387 333.767 329.461 333.049 328.138C332.344 326.841 332.137 325.286 332.601 323.874C333.239 321.933 334.738 320.898 336.493 320.024Z"/>
	<path fill="#F5EFBE" transform="scale(2.85569 2.85569)" d="M152.58 310.934C153.153 311.067 153.486 311.401 153.895 311.803C155.512 313.389 156.753 315.448 158.303 317.124C160.356 319.343 162.809 321.198 164.694 323.58C166.864 326.324 168.662 329.597 170.599 332.529C167.898 335.35 164.958 337.224 161.239 338.424C159.938 338.656 158.67 338.755 157.353 338.648C153.28 338.316 149.157 336.575 146.536 333.357C144.282 330.59 143.091 326.481 143.55 322.931C144.272 317.347 148.447 314.179 152.58 310.934Z"/>
	<path fill="#1C183B" transform="scale(2.85569 2.85569)" d="M156.428 320.731C157.551 320.677 158.511 320.842 159.542 321.313C160.802 321.889 161.762 322.836 162.227 324.158Q162.311 324.4 162.371 324.649Q162.43 324.899 162.465 325.153Q162.499 325.407 162.508 325.663Q162.517 325.919 162.501 326.175Q162.484 326.431 162.443 326.684Q162.401 326.936 162.334 327.184Q162.267 327.431 162.176 327.671Q162.085 327.911 161.971 328.14C161.099 329.932 159.691 330.698 157.887 331.362C157.325 331.356 156.718 331.273 156.185 331.086C154.661 330.551 153.224 329.487 152.489 328.028C151.872 326.807 151.715 325.394 152.207 324.102C152.959 322.122 154.615 321.477 156.428 320.731Z"/>
	<path fill="#F5EFBE" transform="scale(2.85569 2.85569)" d="M147.303 167.558L146.012 166.15C144.089 164.037 143.448 161.46 143.635 158.62C143.869 155.07 145.635 151.789 148.285 149.453C151.297 146.797 155.681 145.272 159.693 145.616C165.922 146.15 169.751 151.635 173.368 156.09C167.379 161.389 163.076 167.302 155.967 171.557L153.005 171.476C151 170.31 149.093 169.034 147.303 167.558Z"/>
	<path fill="#1C183B" transform="scale(2.85569 2.85569)" d="M156.564 153.27C157.503 153.271 158.42 153.333 159.316 153.642C160.743 154.133 161.998 155.178 162.607 156.574Q162.707 156.81 162.783 157.054Q162.859 157.298 162.91 157.549Q162.961 157.8 162.986 158.055Q163.01 158.31 163.009 158.566Q163.008 158.822 162.981 159.076Q162.954 159.331 162.901 159.581Q162.848 159.832 162.77 160.076Q162.692 160.319 162.589 160.554C161.714 162.598 160.165 163.454 158.204 164.197C157.294 164.126 156.414 163.985 155.559 163.654C154.003 163.051 152.61 161.801 152.013 160.223C151.581 159.081 151.602 157.828 152.125 156.72C152.959 154.951 154.802 153.913 156.564 153.27Z"/>
	<path fill="#A5B19E" transform="scale(2.85569 2.85569)" d="M391.276 114.64C392.372 122.031 401.334 126.271 406.31 131.056C402.752 134.412 398.918 137.417 395.492 140.924C390.553 145.98 386.111 151.527 380.997 156.416C379.044 153.341 375.475 149.424 372.539 147.267C370.894 147.218 369.294 147.138 367.717 147.713C364.712 148.807 359.402 154.407 356.887 156.772C353.261 160.181 349.535 163.753 346.2 167.441C343.143 170.823 340.693 175.055 336.82 177.61C334.877 176.528 333.01 173.528 331.704 171.729C332.11 171.387 332.3 170.986 332.555 170.529C332.877 169.816 333.296 169.146 333.687 168.47C336.744 164.31 341.074 159.291 344.851 155.809C348.025 152.882 351.732 150.23 354.537 146.944C355.61 145.805 356.616 144.66 357.572 143.421C358.27 142.324 359.573 141.305 359.942 140.068C361.107 139.306 364.825 140.287 366.33 140.369C371.931 140.675 379.631 138.643 383.822 134.765C389.14 129.844 390.958 121.57 391.276 114.64Z"/>
	<path fill="#F5EFBE" transform="scale(2.85569 2.85569)" d="M357.572 143.421C358.125 143.963 358.435 144.116 358.362 144.958C358.289 145.813 357.611 146.668 357.092 147.304C355.386 149.397 353.266 151.227 351.405 153.193C347.341 157.488 338.848 167.38 334.589 170.176C334.127 170.479 333.659 170.682 333.137 170.856L332.555 170.529C332.877 169.816 333.296 169.146 333.687 168.47C336.744 164.31 341.074 159.291 344.851 155.809C348.025 152.882 351.732 150.23 354.537 146.944C355.61 145.805 356.616 144.66 357.572 143.421Z"/>
	<path fill="#F5EFBE" transform="scale(2.85569 2.85569)" d="M230.755 70.9902C235.97 71.1369 241.326 70.6415 246.557 70.5518C252.474 70.4503 258.388 70.7247 264.304 70.7973C268.269 71.4075 272.539 71.2265 276.559 71.4724C281.185 71.7554 285.795 72.4955 290.377 73.1695C290.085 74.1227 289.952 74.9255 290.071 75.9245L286.661 75.3526C273.963 74.3709 261.433 73.5343 248.685 73.4632C248.533 79.1672 248.934 85.0179 248.585 90.6885C244.721 90.661 239.884 90.1243 236.11 90.9502C226.744 91.1964 217.503 92.0932 208.178 92.8632C203.132 93.908 197.953 94.3171 192.938 95.4088C192.294 94.3167 192.806 80.8856 192.744 78.2838C189.398 79.2647 185.611 79.3622 182.135 79.3573C181.87 79.1989 181.624 79.0709 181.403 78.853C184.728 77.1639 188.743 76.3409 192.38 75.548Q205.46 72.7044 218.806 71.6654C222.785 71.3444 226.779 71.3394 230.755 70.9902Z"/>
	<path fill="#BABFA5" transform="scale(2.85569 2.85569)" d="M192.744 78.2838C197.643 77.0802 202.771 76.9312 207.657 75.595C207.601 78.241 207.115 91.1085 207.722 92.7025L208.178 92.8632C203.132 93.908 197.953 94.3171 192.938 95.4088C192.294 94.3167 192.806 80.8856 192.744 78.2838Z"/>
	<path fill="#F5EFBE" transform="scale(2.85569 2.85569)" d="M324.649 107.27C326.303 104.467 329.825 101.936 332.157 99.6532L352.814 79.6587C358.695 84.6074 362.766 87.9887 367.335 94.3821C374.642 95.4494 383.062 97.9612 387.648 104.215C389.777 107.118 391.081 111.054 391.276 114.64C390.958 121.57 389.14 129.844 383.822 134.765C379.631 138.643 371.931 140.675 366.33 140.369C364.825 140.287 361.107 139.306 359.942 140.068C359.573 141.305 358.27 142.324 357.572 143.421C356.616 144.66 355.61 145.805 354.537 146.944C351.732 150.23 348.025 152.882 344.851 155.809C341.074 159.291 336.744 164.31 333.687 168.47C331.736 166.021 329.532 163.318 327.021 161.439C325.875 162.13 324.735 162.818 323.549 163.44C322.313 162.192 320.366 160.659 319.59 159.118L319.813 158.657C319.742 158.633 319.669 158.612 319.599 158.586C318.082 158.018 313.348 154.729 312.767 153.411L314.345 151.587C317.708 147.947 320.945 144.075 324.462 140.588C326.621 138.447 329.046 136.56 331.289 134.507C333.604 132.388 335.752 130.065 337.929 127.806C337.267 127.713 336.549 127.647 335.98 127.266C331.718 124.41 323.947 114.23 323.127 108.983C323.005 108.203 323.114 107.999 323.575 107.377L324.649 107.27Z"/>
	<defs>
		<linearGradient id="gradient_3" gradientUnits="userSpaceOnUse" x1="358.16257" y1="101.15595" x2="370.63721" y2="117.98663">
			<stop offset="0" stop-color="#9BA59C"/>
			<stop offset="1" stop-color="#D3D9C5"/>
		</linearGradient>
	</defs>
	<path fill="url(#gradient_3)" transform="scale(2.85569 2.85569)" d="M353.441 120.597C353.261 119.952 353.089 119.17 352.768 118.582C352.262 117.653 350.807 115.718 349.808 115.35C349.185 115.373 349.152 115.326 348.698 115.74C348.677 114.047 348.905 112.487 349.416 110.875C350.81 106.48 353.938 103.409 358.001 101.37C362.837 98.9412 368.298 98.3526 373.443 100.106Q374.145 100.341 374.821 100.646Q375.496 100.951 376.137 101.323Q376.777 101.695 377.378 102.129Q377.978 102.563 378.531 103.056Q379.084 103.549 379.585 104.095Q380.086 104.641 380.529 105.235Q380.972 105.828 381.352 106.464Q381.733 107.099 382.048 107.77C382.728 109.243 382.656 110.246 382.084 111.733C379.293 107.669 375.562 105.05 370.669 104.111Q369.969 103.97 369.257 103.901Q368.546 103.832 367.832 103.836Q367.118 103.84 366.407 103.916Q365.697 103.993 364.998 104.141Q364.299 104.289 363.619 104.508Q362.939 104.726 362.284 105.012Q361.63 105.299 361.008 105.651Q360.386 106.002 359.803 106.415Q359.183 106.844 358.609 107.332Q358.034 107.82 357.512 108.363Q356.989 108.907 356.523 109.499Q356.057 110.092 355.652 110.728Q355.248 111.364 354.908 112.037Q354.569 112.71 354.299 113.414Q354.028 114.117 353.829 114.845Q353.63 115.572 353.505 116.315C353.269 117.732 353.3 119.171 353.441 120.597Z"/>
	<path fill="#1C183B" transform="scale(2.85569 2.85569)" d="M324.649 107.27C329.391 108.561 337.136 108.221 339.912 112.861C341.484 115.489 341.519 121.064 340.73 123.999C340.277 125.686 339.192 126.674 337.929 127.806C337.267 127.713 336.549 127.647 335.98 127.266C331.718 124.41 323.947 114.23 323.127 108.983C323.005 108.203 323.114 107.999 323.575 107.377L324.649 107.27Z"/>
	<path fill="#2A2F49" transform="scale(2.85569 2.85569)" d="M319.813 158.657C321.817 157.578 324.581 153.968 326.217 152.21C329.377 148.813 332.739 145.633 335.968 142.306C338.945 139.237 341.848 135.855 345.121 133.109C345.843 132.504 346.622 132.056 347.457 131.627C350.791 135.848 354.635 138.818 359.942 140.068C359.573 141.305 358.27 142.324 357.572 143.421C356.616 144.66 355.61 145.805 354.537 146.944C351.732 150.23 348.025 152.882 344.851 155.809C341.074 159.291 336.744 164.31 333.687 168.47C331.736 166.021 329.532 163.318 327.021 161.439C325.875 162.13 324.735 162.818 323.549 163.44C322.313 162.192 320.366 160.659 319.59 159.118L319.813 158.657Z"/>
	<path fill="#889A8F" transform="scale(2.85569 2.85569)" d="M347.559 139.912C349.996 142.179 351.879 144.893 354.537 146.944C351.732 150.23 348.025 152.882 344.851 155.809C341.074 159.291 336.744 164.31 333.687 168.47C331.736 166.021 329.532 163.318 327.021 161.439C331.644 155.869 337.073 151.069 342.154 145.945C344.056 144.026 345.732 141.901 347.559 139.912Z"/>
	<defs>
		<linearGradient id="gradient_4" gradientUnits="userSpaceOnUse" x1="364.28775" y1="104.56193" x2="372.63382" y2="133.1692">
			<stop offset="0" stop-color="#1A123B"/>
			<stop offset="1" stop-color="#303A48"/>
		</linearGradient>
	</defs>
	<path fill="url(#gradient_4)" transform="scale(2.85569 2.85569)" d="M353.441 120.597C353.3 119.171 353.269 117.732 353.505 116.315Q353.63 115.572 353.829 114.845Q354.028 114.117 354.299 113.414Q354.569 112.71 354.908 112.037Q355.248 111.364 355.652 110.728Q356.057 110.092 356.523 109.499Q356.989 108.907 357.512 108.363Q358.034 107.82 358.609 107.332Q359.183 106.844 359.803 106.415Q360.386 106.002 361.008 105.651Q361.63 105.299 362.284 105.012Q362.939 104.726 363.619 104.508Q364.299 104.289 364.998 104.141Q365.697 103.993 366.407 103.916Q367.118 103.84 367.832 103.836Q368.546 103.832 369.257 103.901Q369.969 103.97 370.669 104.111C375.562 105.05 379.293 107.669 382.084 111.733C383.897 115.912 384.577 120.263 382.906 124.634C381.405 128.56 378.2 131.528 374.367 133.129C370.601 134.702 366.726 134.933 362.906 133.359C359.159 131.815 356.091 129.016 354.553 125.233C353.967 123.792 353.61 122.139 353.441 120.597Z"/>
	<defs>
		<linearGradient id="gradient_5" gradientUnits="userSpaceOnUse" x1="244.64854" y1="79.673576" x2="270.09827" y2="163.54845">
			<stop offset="0" stop-color="#180F2F"/>
			<stop offset="1" stop-color="#2A3551"/>
		</linearGradient>
	</defs>
	<path fill="url(#gradient_5)" transform="scale(2.85569 2.85569)" d="M248.685 73.4632C261.433 73.5343 273.963 74.3709 286.661 75.3526L290.071 75.9245L290.323 76.0967C294.006 76.83 297.759 77.0898 301.443 77.8066C305.14 78.5259 308.818 79.6785 312.547 80.1729C312.954 80.2269 313.156 80.3552 313.51 80.0324C313.59 79.9592 313.625 79.8485 313.683 79.7566C313.979 81.9465 313.79 84.3284 313.783 86.5428C313.987 86.6306 314.222 86.6662 314.395 86.8063C315 87.2987 323.332 99.7195 323.838 100.964C324.451 102.472 323.28 104.198 323.585 105.621C323.631 105.837 324.281 106.302 324.455 106.441C324.168 106.946 323.998 107.067 323.459 107.305L323.575 107.377C323.114 107.999 323.005 108.203 323.127 108.983C323.947 114.23 331.718 124.41 335.98 127.266C336.549 127.647 337.267 127.713 337.929 127.806C335.752 130.065 333.604 132.388 331.289 134.507C329.046 136.56 326.621 138.447 324.462 140.588C320.945 144.075 317.708 147.947 314.345 151.587L312.767 153.411L312.255 153.735C308.227 152.012 304.561 149.117 300.8 146.877C297.38 144.841 293.673 143.389 290.013 141.851L285.852 140.175C282.583 138.975 279.428 137.504 276.071 136.537C269.634 134.683 257.544 133.302 250.878 133.465C250.785 133.474 250.693 133.485 250.6 133.493C246.987 133.806 243.292 133.196 239.658 133.315C229.7 133.641 219.546 135.869 210.089 138.853C209.039 135.758 208.021 131.784 207.847 128.511C207.717 126.065 207.908 123.593 207.525 121.168C207.45 119.641 207.185 117.832 207.492 116.339C202.54 116.685 197.235 117.629 192.414 118.869C188.296 119.611 184.371 121.145 180.281 121.895C179.903 119.574 179.623 116.704 180.368 114.439L180.941 114.184C180.59 113.973 180.776 114.12 180.434 113.687C180.378 111.727 180.005 108.46 180.798 106.674L181.452 106.455C181.163 106.361 180.884 106.368 180.736 106.074C180.035 104.688 180.239 100.45 180.635 98.9414L181.209 98.6719C184.98 97.2553 189.047 96.4441 192.938 95.4088C197.953 94.3171 203.132 93.908 208.178 92.8632C217.503 92.0932 226.744 91.1964 236.11 90.9502C239.884 90.1243 244.721 90.661 248.585 90.6885C248.934 85.0179 248.533 79.1672 248.685 73.4632Z"/>
	<defs>
		<linearGradient id="gradient_6" gradientUnits="userSpaceOnUse" x1="303.96298" y1="107.62789" x2="313.40891" y2="111.30936">
			<stop offset="0" stop-color="#4F8185"/>
			<stop offset="1" stop-color="#7EBDB7"/>
		</linearGradient>
	</defs>
	<path fill="url(#gradient_6)" transform="scale(2.85569 2.85569)" d="M303.315 104.115C304.105 104.377 304.886 104.627 305.694 104.828L313.336 107.047Q313.533 110.581 313.483 114.12C310.425 113.438 307.367 112.517 304.274 112.048L302.984 111.869C303.509 109.47 303.245 106.583 303.315 104.115Z"/>
	<path fill="#688286" transform="scale(2.85569 2.85569)" d="M303.315 104.115C304.105 104.377 304.886 104.627 305.694 104.828C304.647 105.521 304.414 106.542 304.179 107.719C303.918 109.033 303.53 110.876 304.274 112.048L302.984 111.869C303.509 109.47 303.245 106.583 303.315 104.115Z"/>
	<path fill="#889A8F" transform="scale(2.85569 2.85569)" d="M181.452 106.455C185.094 105.25 188.881 104.215 192.657 103.55C192.8 105.448 192.588 109.31 193.253 110.908L193.687 111.165C189.483 112.212 185.08 112.96 180.941 114.184C180.59 113.973 180.776 114.12 180.434 113.687C180.378 111.727 180.005 108.46 180.798 106.674L181.452 106.455Z"/>
	<defs>
		<linearGradient id="gradient_7" gradientUnits="userSpaceOnUse" x1="290.3533" y1="102.19094" x2="301.61868" y2="110.8455">
			<stop offset="0" stop-color="#4F7580"/>
			<stop offset="1" stop-color="#618B91"/>
		</linearGradient>
	</defs>
	<path fill="url(#gradient_7)" transform="scale(2.85569 2.85569)" d="M290.008 101.604C293.9 102.223 298.358 102.332 302.033 103.744L303.315 104.115C303.245 106.583 303.509 109.47 302.984 111.869L301.823 111.631C297.887 110.874 293.933 110.556 289.977 109.96C289.979 107.221 289.554 104.308 290.008 101.604Z"/>
	<path fill="#3C505D" transform="scale(2.85569 2.85569)" d="M302.033 103.744L303.315 104.115C303.245 106.583 303.509 109.47 302.984 111.869L301.823 111.631C301.932 111.5 302.096 111.4 302.15 111.238C302.21 111.059 301.938 104.897 302.033 103.744Z"/>
	<path fill="#A5B19E" transform="scale(2.85569 2.85569)" d="M192.657 103.55C197.303 102.608 202.045 101.626 206.719 100.843C206.624 101.889 206.764 108.317 207.192 108.97L207.681 109.121C203.027 109.937 198.337 110.211 193.687 111.165L193.253 110.908C192.588 109.31 192.8 105.448 192.657 103.55Z"/>
	<path fill="#F5EFBE" transform="scale(2.85569 2.85569)" d="M206.719 100.843C211.843 100.248 216.998 99.5182 222.143 99.1669C229.43 98.6694 236.841 98.7556 244.146 98.7111C245.586 98.7776 247.008 98.8139 248.45 98.7822C248.657 101.643 248.584 104.404 248.541 107.265C245.405 107.211 241.681 106.807 238.615 107.457C228.252 107.682 218.003 108.138 207.681 109.121L207.192 108.97C206.764 108.317 206.624 101.889 206.719 100.843Z"/>
	<path fill="#A5B19E" transform="scale(2.85569 2.85569)" d="M244.146 98.7111C252.776 97.8488 264.522 99.1614 273.265 99.969C277.492 100.359 281.76 100.56 285.975 101.03L290.008 101.604C289.554 104.308 289.979 107.221 289.977 109.96C288.516 109.876 287.026 109.854 285.584 109.596C277.07 109.05 268.595 108.121 260.062 107.708C252.92 107.363 245.764 107.479 238.615 107.457C241.681 106.807 245.405 107.211 248.541 107.265C248.584 104.404 248.657 101.643 248.45 98.7822C247.008 98.8139 245.586 98.7776 244.146 98.7111Z"/>
	<path fill="#889A8F" transform="scale(2.85569 2.85569)" d="M285.975 101.03L290.008 101.604C289.554 104.308 289.979 107.221 289.977 109.96C288.516 109.876 287.026 109.854 285.584 109.596L285.98 109.242C286.413 106.76 285.999 103.572 285.975 101.03Z"/>
	<path fill="#688286" transform="scale(2.85569 2.85569)" d="M290.323 76.0967C294.006 76.83 297.759 77.0898 301.443 77.8066C305.14 78.5259 308.818 79.6785 312.547 80.1729C312.954 80.2269 313.156 80.3552 313.51 80.0324C313.59 79.9592 313.625 79.8485 313.683 79.7566C313.979 81.9465 313.79 84.3284 313.783 86.5428C313.646 90.6334 313.719 94.8661 313.221 98.9246C308.945 97.3739 304.733 96.0458 300.233 95.2684C296.844 94.6829 293.337 94.4993 290.018 93.5906C289.952 91.1928 289.459 77.2774 290.323 76.0967Z"/>
	<path fill="#BABFA5" transform="scale(2.85569 2.85569)" d="M248.685 73.4632C261.433 73.5343 273.963 74.3709 286.661 75.3526L290.071 75.9245L290.323 76.0967C289.459 77.2774 289.952 91.1928 290.018 93.5906Q287.668 93.2509 285.327 92.8582C277.725 92.4306 270.144 91.6044 262.54 91.2341C253.747 90.8059 244.912 90.9111 236.11 90.9502C239.884 90.1243 244.721 90.661 248.585 90.6885C248.934 85.0179 248.533 79.1672 248.685 73.4632Z"/>
	<path fill="#889A8F" transform="scale(2.85569 2.85569)" d="M286.661 75.3526L290.071 75.9245L290.323 76.0967C289.459 77.2774 289.952 91.1928 290.018 93.5906Q287.668 93.2509 285.327 92.8582L285.848 92.5689C286.406 88.9039 286.119 79.7804 285.707 75.9826L285.675 75.7108L286.661 75.3526Z"/>
	<path fill="#A5B19E" transform="scale(2.85569 2.85569)" d="M248.146 114.519Q261.633 115.119 275.11 115.895C278.807 116.114 282.909 116.043 286.535 116.682C285.242 124.504 286.147 132.335 285.852 140.175C282.583 138.975 279.428 137.504 276.071 136.537C269.634 134.683 257.544 133.302 250.878 133.465C250.003 133.384 249.162 133.272 248.302 133.091C247.553 131.62 248.159 117.276 248.146 114.519Z"/>
	<defs>
		<linearGradient id="gradient_8" gradientUnits="userSpaceOnUse" x1="295.40491" y1="144.53815" x2="310.75284" y2="121.02283">
			<stop offset="0" stop-color="#556C77"/>
			<stop offset="1" stop-color="#65898B"/>
		</linearGradient>
	</defs>
	<path fill="url(#gradient_8)" transform="scale(2.85569 2.85569)" d="M286.535 116.682L289.907 117.146C293.278 117.625 296.696 118.025 300.017 118.786C304.297 119.768 308.729 121.323 313.118 121.658Q313.551 126.51 313.559 131.382C313.588 136.052 312.737 147.63 314.345 151.587L312.767 153.411L312.255 153.735C308.227 152.012 304.561 149.117 300.8 146.877C297.38 144.841 293.673 143.389 290.013 141.851L285.852 140.175C286.147 132.335 285.242 124.504 286.535 116.682Z"/>
	<path fill="#889A8F" transform="scale(2.85569 2.85569)" d="M286.535 116.682L289.907 117.146C290.036 125.38 289.779 133.619 290.013 141.851L285.852 140.175C286.147 132.335 285.242 124.504 286.535 116.682Z"/>
	<path fill="#EEE3B5" transform="scale(2.85569 2.85569)" d="M207.492 116.339C221.023 114.791 234.533 114.351 248.146 114.519C248.159 117.276 247.553 131.62 248.302 133.091C249.162 133.272 250.003 133.384 250.878 133.465C250.785 133.474 250.693 133.485 250.6 133.493C246.987 133.806 243.292 133.196 239.658 133.315C229.7 133.641 219.546 135.869 210.089 138.853C209.039 135.758 208.021 131.784 207.847 128.511C207.717 126.065 207.908 123.593 207.525 121.168C207.45 119.641 207.185 117.832 207.492 116.339Z"/>
	<path fill="#A5B19E" transform="scale(2.85569 2.85569)" d="M135.716 238.447Q135.811 240.747 135.779 243.048L158.13 243.01C158.106 244.745 157.874 247.036 158.382 248.695L158.162 248.232L158.512 248.492C158.48 247.007 158.095 244.607 159.154 243.438C160.452 242.763 162.504 243.024 163.967 243.003C163.823 244.395 163.789 249.038 164.576 250.135C164.626 250.206 164.691 250.265 164.748 250.331C166.083 261.515 168.994 271.77 174.435 281.697C174.517 281.791 174.601 281.884 174.681 281.98C176.716 284.412 177.518 287.691 179.213 290.335C183.728 297.374 189.523 302.745 195.875 308.069C197.876 309.747 199.965 311.733 202.315 312.906C217.665 324.35 241.766 328.235 260.575 325.358Q261.285 325.248 261.981 325.068C266.842 324.018 272.15 323.028 276.814 321.338C281.828 319.521 286.989 316.424 291.401 313.438C292.707 312.607 293.933 311.553 295.162 310.608C304.691 303.388 311.187 296.931 317.417 286.45C318.936 283.895 320.509 281.291 321.699 278.565C323.419 274.624 324.764 270.447 326.265 266.411C328.432 258.28 330.12 251.208 329.886 242.708C332.179 242.07 334.56 242.557 336.893 242.6C336.984 244.749 336.91 246.916 337.028 249.058C337.395 247.056 337.252 244.949 337.211 242.923C341.982 242.881 346.768 243.001 351.541 243.031C353.729 243.044 356.188 243.288 358.337 242.877L358.593 242.325C359.066 247.164 358.49 252.33 357.878 257.136C355.321 277.211 347.457 295.249 334.61 310.894C326.092 321.268 316.881 330.173 305.632 337.52C303.447 338.947 301.252 340.479 298.936 341.687C295.498 343.479 291.754 344.826 288.174 346.312C280.021 349.697 271.008 352.405 262.198 353.277L261.715 353.321C258.211 354.738 246.64 354.191 242.527 354.055C224.014 353.441 205.837 347.263 189.972 337.908C186.807 336.042 183.6 334.147 180.674 331.918C178.653 330.377 176.871 328.508 175.015 326.775C172.275 324.217 169.461 321.713 166.896 318.976C163.902 315.722 160.783 312.423 158.138 308.878C148.08 295.398 141.929 283.568 138.26 267.099C136.955 261.24 135.998 255.442 135.758 249.433C135.617 245.899 135.203 241.943 135.716 238.447Z"/>
	<path fill="#F5EFBE" transform="scale(2.85569 2.85569)" d="M329.886 242.708C332.179 242.07 334.56 242.557 336.893 242.6C336.984 244.749 336.91 246.916 337.028 249.058C336.447 263.58 331.918 275.604 324.887 288.161C323.235 291.111 321.671 294.157 319.668 296.886C316.11 301.733 311.405 306.633 306.967 310.719C303.79 313.645 300.499 316.517 296.912 318.931C288.817 324.38 277.803 328.893 268.329 331.437C265.87 332.098 263.304 332.295 260.833 332.889Q254.588 333.659 248.297 333.785C237.91 333.948 226.22 331.802 216.521 328.037C213.918 327.026 211.45 325.674 208.898 324.545C206.071 323.294 202.977 322.25 200.357 320.6C198.644 319.522 197.084 318.099 195.501 316.834C191.017 313.249 186.88 309.552 182.76 305.564C181.273 304.197 179.848 302.758 178.635 301.138C175.653 297.158 161.157 273.07 161.905 269.329C162.271 267.495 164.07 264.735 165.614 263.738C166.045 263.709 166.236 263.579 166.579 263.95C167.416 264.857 167.576 267.3 167.995 268.553C168.785 270.914 172.444 280.447 174.23 281.581C174.296 281.624 174.367 281.659 174.435 281.697C174.517 281.791 174.601 281.884 174.681 281.98C176.716 284.412 177.518 287.691 179.213 290.335C183.728 297.374 189.523 302.745 195.875 308.069C197.876 309.747 199.965 311.733 202.315 312.906C217.665 324.35 241.766 328.235 260.575 325.358Q261.285 325.248 261.981 325.068C266.842 324.018 272.15 323.028 276.814 321.338C281.828 319.521 286.989 316.424 291.401 313.438C292.707 312.607 293.933 311.553 295.162 310.608C304.691 303.388 311.187 296.931 317.417 286.45C318.936 283.895 320.509 281.291 321.699 278.565C323.419 274.624 324.764 270.447 326.265 266.411C328.432 258.28 330.12 251.208 329.886 242.708Z"/>
	<path fill="#BABFA5" transform="scale(2.85569 2.85569)" d="M135.716 238.447Q135.811 240.747 135.779 243.048L158.13 243.01C158.106 244.745 157.874 247.036 158.382 248.695L158.162 248.232L158.512 248.492C158.48 247.007 158.095 244.607 159.154 243.438C160.452 242.763 162.504 243.024 163.967 243.003C163.823 244.395 163.789 249.038 164.576 250.135C164.626 250.206 164.691 250.265 164.748 250.331C166.083 261.515 168.994 271.77 174.435 281.697C174.367 281.659 174.296 281.624 174.23 281.581C172.444 280.447 168.785 270.914 167.995 268.553C167.576 267.3 167.416 264.857 166.579 263.95C166.236 263.579 166.045 263.709 165.614 263.738C164.07 264.735 162.271 267.495 161.905 269.329C161.157 273.07 175.653 297.158 178.635 301.138C179.848 302.758 181.273 304.197 182.76 305.564C180.446 308.3 172.56 316.939 169.844 318.396C169.233 318.723 168.545 318.783 167.866 318.835C167.769 318.843 167.672 318.847 167.576 318.854C167.203 318.883 167.346 318.87 166.896 318.976C163.902 315.722 160.783 312.423 158.138 308.878C148.08 295.398 141.929 283.568 138.26 267.099C136.955 261.24 135.998 255.442 135.758 249.433C135.617 245.899 135.203 241.943 135.716 238.447Z"/>
	<defs>
		<linearGradient id="gradient_9" gradientUnits="userSpaceOnUse" x1="292.50696" y1="288.9292" x2="191.52448" y2="147.24612">
			<stop offset="0" stop-color="#D9D3AC"/>
			<stop offset="1" stop-color="#FFF6BE"/>
		</linearGradient>
	</defs>
	<path fill="url(#gradient_9)" transform="scale(2.85569 2.85569)" d="M210.089 138.853C219.546 135.869 229.7 133.641 239.658 133.315C243.292 133.196 246.987 133.806 250.6 133.493C250.693 133.485 250.785 133.474 250.878 133.465C257.544 133.302 269.634 134.683 276.071 136.537C279.428 137.504 282.583 138.975 285.852 140.175L290.013 141.851C293.673 143.389 297.38 144.841 300.8 146.877C304.561 149.117 308.227 152.012 312.255 153.735L312.767 153.411C313.348 154.729 318.082 158.018 319.599 158.586C319.669 158.612 319.742 158.633 319.813 158.657L319.59 159.118C320.366 160.659 322.313 162.192 323.549 163.44C324.735 162.818 325.875 162.13 327.021 161.439C329.532 163.318 331.736 166.021 333.687 168.47C333.296 169.146 332.877 169.816 332.555 170.529C332.3 170.986 332.11 171.387 331.704 171.729C333.01 173.528 334.877 176.528 336.82 177.61C340.379 181.367 342.618 186.429 344.928 191.008C346.914 194.946 349.003 198.787 350.719 202.856C355.952 215.262 358.288 228.908 358.593 242.325L358.337 242.877C356.188 243.288 353.729 243.044 351.541 243.031C346.768 243.001 341.982 242.881 337.211 242.923C337.252 244.949 337.395 247.056 337.028 249.058C336.91 246.916 336.984 244.749 336.893 242.6C334.56 242.557 332.179 242.07 329.886 242.708C329.612 241.426 329.73 239.853 329.704 238.53L329.616 238.15C328.977 235.281 329.122 232.231 328.449 229.321C327.224 224.016 325.709 219.031 323.823 213.928C322.873 211.359 322.032 208.708 320.867 206.228C317.436 198.932 311.818 192.147 306.205 186.409C303.177 183.314 300.209 180.272 296.579 177.867C291.757 174.672 286.545 171.232 281.329 168.748C265.336 161.132 246.64 159.564 229.385 163.154C209.553 167.281 189.899 180.33 178.787 197.299C171.36 208.641 165.331 224.014 164.412 237.611C164.123 241.89 164.675 246.069 164.748 250.331C164.691 250.265 164.626 250.206 164.576 250.135C163.789 249.038 163.823 244.395 163.967 243.003C162.504 243.024 160.452 242.763 159.154 243.438C158.095 244.607 158.48 247.007 158.512 248.492L158.162 248.232L158.382 248.695C157.874 247.036 158.106 244.745 158.13 243.01L135.779 243.048Q135.811 240.747 135.716 238.447C135.581 226.014 139.429 211.56 144.319 200.155C146.21 195.743 148.59 191.442 150.804 187.18C152.63 183.912 154.87 180.568 157.197 177.639C156.78 177.001 156.655 176.243 156.241 175.61C155.267 174.124 153.684 173.189 153.005 171.476L155.967 171.557C163.076 167.302 167.379 161.389 173.368 156.09C174.501 156.705 175.891 157.001 176.921 157.718Q178.924 155.973 180.953 154.259C182.677 153.547 184.461 152.116 186.058 151.106C188.397 149.627 190.781 148.251 193.199 146.907C195.322 146.069 197.419 144.62 199.479 143.595C202.032 142.325 204.735 141.374 207.272 140.08C208.243 139.764 209.165 139.286 210.089 138.853Z"/>
	<path fill="#3C505D" transform="scale(2.85569 2.85569)" d="M323.549 163.44C324.735 162.818 325.875 162.13 327.021 161.439C329.532 163.318 331.736 166.021 333.687 168.47C333.296 169.146 332.877 169.816 332.555 170.529C332.3 170.986 332.11 171.387 331.704 171.729C329.391 168.629 326.378 166.053 323.549 163.44Z"/>
	<defs>
		<linearGradient id="gradient_10" gradientUnits="userSpaceOnUse" x1="158.03223" y1="176.94009" x2="170.52641" y2="154.73306">
			<stop offset="0" stop-color="#304655"/>
			<stop offset="1" stop-color="#637368"/>
		</linearGradient>
	</defs>
	<path fill="url(#gradient_10)" transform="scale(2.85569 2.85569)" d="M173.368 156.09C174.501 156.705 175.891 157.001 176.921 157.718C174.109 160.385 171.074 162.834 168.324 165.553C164.44 169.393 160.844 173.573 157.197 177.639C156.78 177.001 156.655 176.243 156.241 175.61C155.267 174.124 153.684 173.189 153.005 171.476L155.967 171.557C163.076 167.302 167.379 161.389 173.368 156.09Z"/>
	<defs>
		<linearGradient id="gradient_11" gradientUnits="userSpaceOnUse" x1="223.34767" y1="159.02498" x2="256.01633" y2="266.22275">
			<stop offset="0" stop-color="#738D91"/>
			<stop offset="1" stop-color="#BBC4B4"/>
		</linearGradient>
	</defs>
	<path fill="url(#gradient_11)" transform="scale(2.85569 2.85569)" d="M158.13 243.01C158.499 239.371 158.497 235.68 159.035 232.059C160.613 221.451 164.847 210.492 170.142 201.166C171.671 198.472 173.468 195.923 175.163 193.332C177.655 189.523 180.06 185.847 183.191 182.517C187.17 178.283 191.926 174.8 196.597 171.366C201.239 167.954 206.361 165.499 211.629 163.236C216.311 161.225 221.021 159.29 225.961 158.003C238.071 154.85 252.414 155.142 264.706 157.054C286.299 160.413 307.662 175.794 320.235 193.219C328.008 203.991 333.777 220.676 335.955 233.801C336.326 236.036 336.957 238.614 336.597 240.865C336.543 240.881 336.49 240.905 336.435 240.903L335.543 239.817C335.579 240.48 335.734 241.099 335.883 241.742L335.649 242.106C333.882 241.795 332.332 241.887 330.554 242.071C330.32 240.963 330.073 239.887 330.057 238.749C330.056 238.677 330.057 238.604 330.057 238.532L329.704 238.53L329.616 238.15C328.977 235.281 329.122 232.231 328.449 229.321C327.224 224.016 325.709 219.031 323.823 213.928C322.873 211.359 322.032 208.708 320.867 206.228C317.436 198.932 311.818 192.147 306.205 186.409C303.177 183.314 300.209 180.272 296.579 177.867C291.757 174.672 286.545 171.232 281.329 168.748C265.336 161.132 246.64 159.564 229.385 163.154C209.553 167.281 189.899 180.33 178.787 197.299C171.36 208.641 165.331 224.014 164.412 237.611C164.123 241.89 164.675 246.069 164.748 250.331C164.691 250.265 164.626 250.206 164.576 250.135C163.789 249.038 163.823 244.395 163.967 243.003C162.504 243.024 160.452 242.763 159.154 243.438C158.095 244.607 158.48 247.007 158.512 248.492L158.162 248.232L158.382 248.695C157.874 247.036 158.106 244.745 158.13 243.01Z"/>
	<path fill="#3C505D" transform="scale(2.85569 2.85569)" d="M386.048 183.395C391.831 176.224 399.167 170.043 405.512 163.349C406.839 161.948 409.579 157.738 410.845 157.108Q411.247 212.733 411.074 268.36L411.015 296.472C410.998 305.393 411.438 314.339 409.569 323.118C406.662 336.766 400.59 348.954 390.651 358.851C366.262 383.137 332.738 381.282 300.902 381.165C294.644 381.142 288.35 381.173 282.095 380.99C282.121 380.963 282.148 380.939 282.171 380.909C282.422 380.584 282.705 380.104 283.024 379.835C284.524 378.572 289.556 378.906 293.018 376.294C296.784 373.452 300.196 370.146 303.878 367.197C306.848 364.818 310.179 362.881 313.237 360.611C317.865 357.176 322.282 353.456 326.975 350.108C333.358 356.221 337.529 361.586 345.462 366.348C348.23 363.998 353.388 358.831 354.708 355.508C355.267 354.101 355.3 352.12 355.377 350.611C355.704 344.219 355.308 337.496 352.655 331.566C352.173 330.487 351.587 329.454 350.453 329.033C350.882 326.921 351.028 324.932 350.986 322.779C353.588 321.703 356.477 317.551 357.602 315.026C358.497 313.018 359.047 310.746 359.665 308.638C361.73 301.591 363.034 295.044 364.089 287.802C364.875 282.411 365.872 276.974 366.197 271.534C366.493 266.574 366.225 261.583 365.988 256.627C365.572 247.917 365.006 238.905 363.178 230.369C362.157 225.6 360.654 221.042 359.302 216.365C358.102 212.214 357.018 208.037 355.561 203.966C354.42 200.777 352.559 197.885 351.365 194.705L351.224 194.322C357.505 185.788 366.681 179.423 371.497 169.715C374.237 172.113 376.986 174.523 379.575 177.085C381.719 179.207 383.71 181.48 386.048 183.395Z"/>
	<defs>
		<linearGradient id="gradient_12" gradientUnits="userSpaceOnUse" x1="268.75" y1="164.38799" x2="226.73502" y2="316.63675">
			<stop offset="0" stop-color="#1D1536"/>
			<stop offset="1" stop-color="#30374D"/>
		</linearGradient>
	</defs>
	<path fill="url(#gradient_12)" transform="scale(2.85569 2.85569)" d="M164.748 250.331C164.675 246.069 164.123 241.89 164.412 237.611C165.331 224.014 171.36 208.641 178.787 197.299C189.899 180.33 209.553 167.281 229.385 163.154C246.64 159.564 265.336 161.132 281.329 168.748C286.545 171.232 291.757 174.672 296.579 177.867C300.209 180.272 303.177 183.314 306.205 186.409C311.818 192.147 317.436 198.932 320.867 206.228C322.032 208.708 322.873 211.359 323.823 213.928C325.709 219.031 327.224 224.016 328.449 229.321C329.122 232.231 328.977 235.281 329.616 238.15L329.704 238.53C329.73 239.853 329.612 241.426 329.886 242.708C330.12 251.208 328.432 258.28 326.265 266.411C324.764 270.447 323.419 274.624 321.699 278.565C320.509 281.291 318.936 283.895 317.417 286.45C311.187 296.931 304.691 303.388 295.162 310.608C293.933 311.553 292.707 312.607 291.401 313.438C286.989 316.424 281.828 319.521 276.814 321.338C272.15 323.028 266.842 324.018 261.981 325.068Q261.285 325.248 260.575 325.358C241.766 328.235 217.665 324.35 202.315 312.906C199.965 311.733 197.876 309.747 195.875 308.069C189.523 302.745 183.728 297.374 179.213 290.335C177.518 287.691 176.716 284.412 174.681 281.98C174.601 281.884 174.517 281.791 174.435 281.697C168.994 271.77 166.083 261.515 164.748 250.331Z"/>
	<path fill="#323F4B" transform="scale(2.85569 2.85569)" d="M290.517 184.125C290.922 183.516 291.236 182.848 291.96 182.593C294.272 183.005 306.972 194.856 309.031 197.291L306.672 198.781C306.017 197.949 304.954 197.239 304.202 196.45C302.651 194.823 301.269 193.06 299.707 191.441C296.561 188.93 293.241 187.188 290.517 184.125Z"/>
	<path fill="#2A2F49" transform="scale(2.85569 2.85569)" d="M237.306 169.643C240.617 168.823 243.931 168.772 247.303 168.435C251.17 168.048 254.822 167.343 258.731 167.492C258.825 169.21 259.425 175.718 258.602 176.937C258.589 176.188 258.683 175.667 258.307 175.011C255.025 174.186 251.383 173.991 248.011 173.659C244.487 173.705 241 174.122 237.503 174.534C237.347 172.897 237.306 171.287 237.306 169.643Z"/>
	<path fill="#3C505D" transform="scale(2.85569 2.85569)" d="M265.454 210.711C265.671 209.46 265.354 207.864 265.253 206.591C264.953 202.832 263.517 192.58 265.961 189.768C267.232 188.305 269.332 187.855 271.182 187.763C274.355 187.606 280.928 190.071 283.212 192.156C277.61 198.569 271.459 204.507 265.929 211.001L265.454 210.711Z"/>
	<path fill="#889A8F" transform="scale(2.85569 2.85569)" d="M248.011 173.659C251.383 173.991 255.025 174.186 258.307 175.011C258.683 175.667 258.589 176.188 258.602 176.937C258.266 186.977 257.595 197.494 257.75 207.498C254.5 207.046 251.258 206.757 247.975 206.766C247.608 204.911 247.937 202.494 247.908 200.58Q247.71 191.987 247.765 183.393C247.772 180.179 247.645 176.853 248.011 173.659Z"/>
	<path fill="#BABFA5" transform="scale(2.85569 2.85569)" d="M237.503 174.534C241 174.122 244.487 173.705 248.011 173.659C247.645 176.853 247.772 180.179 247.765 183.393Q247.71 191.988 247.908 200.58C247.937 202.494 247.608 204.911 247.975 206.766C244.503 206.719 241.13 207.071 237.677 207.373C237.779 199.817 237.507 192.22 237.511 184.657C237.562 181.285 237.51 177.906 237.503 174.534Z"/>
	<path fill="#3C505D" transform="scale(2.85569 2.85569)" d="M294.631 231.951C301.514 224.627 308.734 217.671 315.71 210.448C320.515 215.458 323.213 224.918 324.46 231.687L306.268 231.799C302.407 231.854 298.486 232.122 294.631 231.951Z"/>
	<path fill="#889A8F" transform="scale(2.85569 2.85569)" d="M299.707 191.441C301.269 193.06 302.651 194.823 304.202 196.45C304.954 197.239 306.017 197.949 306.672 198.781C303.949 201.559 301.424 204.549 298.646 207.264C294.092 211.713 289.154 215.865 284.324 220.013C282.85 221.279 281.233 223.151 279.599 224.126C277.569 221.553 275.867 218.931 273.602 216.519C274.397 216.176 298.36 193.352 299.707 191.441Z"/>
	<path fill="#BABFA5" transform="scale(2.85569 2.85569)" d="M290.517 184.125C293.241 187.188 296.561 188.93 299.707 191.441C298.36 193.352 274.397 216.176 273.602 216.519C272.772 216.058 271.918 215.18 271.159 214.586C269.474 213.264 267.788 212.077 265.929 211.001C271.459 204.507 277.61 198.569 283.212 192.156C286.182 189.806 288.287 187.143 290.517 184.125Z"/>
	<path fill="#3C505D" transform="scale(2.85569 2.85569)" d="M191.663 210.809C194.242 213.993 197.451 216.744 200.198 219.81C202.293 222.149 207.101 229.435 209.48 230.442L209.849 230.6Q210.696 230.963 211.568 231.262L211.095 232.966L185.538 231.627C182.771 231.487 177.797 231.779 175.322 231.065C176.112 231.012 176.605 231.092 177.261 230.631C179.964 222.514 187.066 217.759 191.663 210.809Z"/>
	<path fill="#889A8F" transform="scale(2.85569 2.85569)" d="M171.326 243.004Q183.005 242.999 194.684 242.869C199.687 242.816 205.033 242.413 209.993 243.082L210.144 243.481C210.164 246.34 210.484 249.162 210.908 251.986C206.672 252.714 201.936 252.43 197.627 252.65C188.791 253.101 180.073 253.74 171.219 253.779C171.22 250.192 171.416 246.589 171.326 243.004Z"/>
	<path fill="#3C505D" transform="scale(2.85569 2.85569)" d="M214.424 195.526C220.446 189.329 229.043 185.781 237.511 184.657C237.507 192.22 237.779 199.817 237.677 207.373C234.421 208.344 231.418 209.561 228.372 211.067C226.552 209.036 224.427 207.275 222.613 205.202C219.818 202.011 217.482 198.488 214.424 195.526Z"/>
	<path fill="#889A8F" transform="scale(2.85569 2.85569)" d="M325.245 242.256C325.046 245.933 325.014 249.62 324.765 253.292Q306.762 253.213 288.787 252.202C287.02 251.993 285.291 252.245 283.528 252.078C283.91 249.138 283.935 246.172 284.193 243.22C285.561 243.063 286.936 243.027 288.312 242.97L288.534 243.036C294.067 242.888 299.6 243.042 305.131 242.908C311.838 242.745 318.535 242.308 325.245 242.256Z"/>
	<path fill="#2A2F49" transform="scale(2.85569 2.85569)" d="M288.312 242.97L288.534 243.036C289.022 245.955 288.815 249.236 288.787 252.202C287.02 251.993 285.291 252.245 283.528 252.078C283.91 249.138 283.935 246.172 284.193 243.22C285.561 243.063 286.936 243.027 288.312 242.97Z"/>
	<path fill="#BABFA5" transform="scale(2.85569 2.85569)" d="M171.326 243.004C170.987 240.359 172.182 233.849 172.992 231.213C173.6 230.86 174.622 231.035 175.322 231.065C177.797 231.779 182.771 231.487 185.538 231.627L211.095 232.966C210.619 236.092 210.747 240.262 209.993 243.082C205.033 242.413 199.687 242.816 194.684 242.869Q183.005 242.999 171.326 243.004Z"/>
	<path fill="#BABFA5" transform="scale(2.85569 2.85569)" d="M294.631 231.951C298.486 232.122 302.407 231.854 306.268 231.799L324.46 231.687C324.764 235.134 325.326 238.801 325.245 242.256C318.535 242.308 311.838 242.745 305.131 242.908C299.6 243.042 294.067 242.888 288.534 243.036L288.312 242.97C286.936 243.027 285.561 243.063 284.193 243.22C284.26 242.445 284.124 241.703 284.014 240.938Q283.742 237.114 282.891 233.376C284.244 232.992 285.415 233.263 286.773 233.161C289.405 232.897 292.075 232.658 294.631 231.951Z"/>
	<path fill="#323F4B" transform="scale(2.85569 2.85569)" d="M282.891 233.376C284.244 232.992 285.415 233.263 286.773 233.161C287.852 236.076 287.952 239.865 288.312 242.97C286.936 243.027 285.561 243.063 284.193 243.22C284.26 242.445 284.124 241.703 284.014 240.938Q283.742 237.114 282.891 233.376Z"/>
	<path fill="#F5EFBE" transform="scale(2.85569 2.85569)" d="M237.677 207.373C241.13 207.071 244.503 206.719 247.975 206.766C247.63 210.454 246.906 215.666 247.496 219.272C240.545 219.693 234.418 222.519 229.746 227.769C226.397 231.532 223.521 237.114 223.245 242.215C223.075 242.733 223.129 243.144 222.547 243.342C221.727 243.623 211.646 243.487 210.144 243.481L209.993 243.082C210.747 240.262 210.619 236.092 211.095 232.966L211.568 231.262C212.52 229.064 213.561 226.971 214.716 224.871C217.058 222.023 218.942 218.988 221.531 216.309C223.735 214.445 226.029 212.749 228.372 211.067C231.418 209.561 234.421 208.344 237.677 207.373Z"/>
	<path fill="#889A8F" transform="scale(2.85569 2.85569)" d="M196.772 191.939C199.194 189.296 201.681 186.774 204.647 184.736C208.073 188.19 210.908 192.124 214.424 195.526C217.482 198.488 219.818 202.011 222.613 205.202C224.427 207.275 226.552 209.036 228.372 211.067C226.029 212.749 223.735 214.445 221.531 216.309C218.942 218.988 217.058 222.023 214.716 224.871C212.902 223.049 211.308 221.004 209.486 219.177C206.305 215.989 202.832 213.085 199.541 210.013C195.871 206.587 192.359 203.003 188.665 199.595C191.605 197.229 194.21 194.709 196.772 191.939Z"/>
	<path fill="#BABFA5" transform="scale(2.85569 2.85569)" d="M196.772 191.939C199.194 189.296 201.681 186.774 204.647 184.736C208.073 188.19 210.908 192.124 214.424 195.526C217.482 198.488 219.818 202.011 222.613 205.202C224.427 207.275 226.552 209.036 228.372 211.067C226.029 212.749 223.735 214.445 221.531 216.309C221.463 216.242 221.407 216.162 221.328 216.108C219.11 214.594 217.423 212.507 215.491 210.636C213.184 208.403 210.738 206.312 208.458 204.051C206.657 202.264 205.009 200.326 203.243 198.505C201.101 196.296 198.662 194.384 196.772 191.939Z"/>
	<path fill="#3C505D" transform="scale(2.85569 2.85569)" d="M292.573 273.269C293.098 271.259 294.159 269.678 295.813 268.423C302.425 263.406 318.286 265.444 326.265 266.411C324.764 270.447 323.419 274.624 321.699 278.565C320.509 281.291 318.936 283.895 317.417 286.45C311.187 296.931 304.691 303.388 295.162 310.608C294.339 309.495 295.067 308.838 294.145 307.199C294.159 307.171 294.176 307.146 294.187 307.117C295.858 302.662 299.843 302.164 301.478 298.413C300.828 296.835 298.729 295.064 297.535 293.808C294.522 290.637 291.608 287.377 288.454 284.343C285.677 281.671 282.404 279.236 279.993 276.239C281.71 273.073 283.937 270.148 285.735 267.003C288.162 268.934 290.349 271.11 292.573 273.269Z"/>
	<path fill="#BABFA5" transform="scale(2.85569 2.85569)" d="M285.735 267.003C288.162 268.934 290.349 271.11 292.573 273.269L302.473 282.524C304.922 284.848 307.238 287.365 309.854 289.502C307.876 291.576 306.151 293.661 304.554 296.038C304.233 296.515 302.97 298.77 302.613 298.923C302.47 298.984 302.304 298.966 302.15 298.988L301.478 298.413C300.828 296.835 298.729 295.064 297.535 293.808C294.522 290.637 291.608 287.377 288.454 284.343C285.677 281.671 282.404 279.236 279.993 276.239C281.71 273.073 283.937 270.148 285.735 267.003Z"/>
	<path fill="#BABFA5" transform="scale(2.85569 2.85569)" d="M247.975 206.766C251.258 206.757 254.5 207.046 257.75 207.498C260.384 208.309 262.954 209.556 265.454 210.711L265.929 211.001C267.788 212.077 269.474 213.264 271.159 214.586C271.918 215.18 272.772 216.058 273.602 216.519C275.867 218.931 277.569 221.553 279.599 224.126C280.834 227.069 282.213 230.251 282.891 233.376Q283.742 237.114 284.014 240.938C284.124 241.703 284.26 242.445 284.193 243.22C283.935 246.172 283.91 249.138 283.528 252.078C281.238 261.656 275.047 270.556 266.602 275.737C266.272 275.939 265.94 276.127 265.599 276.308C264.203 276.974 262.771 277.575 261.339 278.162C252.64 281.729 242.203 282.111 233.485 278.407C225.064 274.829 220.699 271.11 216.057 263.354C214.495 260.744 213.016 258.188 211.88 255.355L210.908 251.986C210.484 249.162 210.164 246.34 210.144 243.481C211.646 243.487 221.727 243.623 222.547 243.342C223.129 243.144 223.075 242.733 223.245 242.215C223.521 237.114 226.397 231.532 229.746 227.769C234.418 222.519 240.545 219.693 247.496 219.272C246.906 215.666 247.63 210.454 247.975 206.766Z"/>
	<path fill="#EEE3B5" transform="scale(2.85569 2.85569)" d="M247.975 206.766C251.258 206.757 254.5 207.046 257.75 207.498C260.384 208.309 262.954 209.556 265.454 210.711L265.929 211.001C267.788 212.077 269.474 213.264 271.159 214.586C271.918 215.18 272.772 216.058 273.602 216.519C275.867 218.931 277.569 221.553 279.599 224.126C280.834 227.069 282.213 230.251 282.891 233.376Q283.742 237.114 284.014 240.938C283.958 241.583 284.03 242.716 283.563 243.13C280.477 243.361 277.27 243.057 274.18 242.905Q274.255 243.49 274.302 244.078Q274.348 244.666 274.365 245.256Q274.383 245.846 274.371 246.435Q274.36 247.025 274.319 247.614Q274.279 248.202 274.209 248.788Q274.14 249.374 274.042 249.956Q273.943 250.537 273.817 251.113Q273.69 251.69 273.535 252.259Q273.381 252.828 273.198 253.389Q273.015 253.95 272.805 254.501Q272.595 255.053 272.359 255.593Q272.122 256.133 271.859 256.661Q271.596 257.189 271.307 257.704Q271.018 258.218 270.705 258.718Q270.391 259.217 270.053 259.701Q269.715 260.185 269.354 260.651C264.897 266.312 258.843 270.871 251.54 271.723C246.745 272.282 242.255 271.715 237.689 270.214C235.939 269.396 234.246 268.458 232.545 267.544C232.005 266.849 230.803 266.119 230.118 265.522C226.499 262.373 222.953 258.85 222.375 253.801C222.214 252.393 221.422 248.811 222.01 247.657C222.67 248.717 222.865 254.431 223.433 256.418C223.559 256.526 224.84 256.502 225.301 256.614C225.971 255.581 222.444 249.245 223.219 246.369C224.207 250.993 225.092 255.064 228.249 258.793C232.494 263.809 239.321 267.43 245.883 267.948C251.972 268.43 257.805 266.096 262.389 262.187C267.523 257.81 270.736 252.001 271.219 245.196C271.674 238.797 268.939 232.379 264.768 227.628C260.031 222.231 254.615 219.747 247.496 219.272C246.906 215.666 247.63 210.454 247.975 206.766Z"/>
	<path fill="#2A2F49" transform="scale(2.85569 2.85569)" d="M247.496 219.272C254.615 219.747 260.031 222.231 264.768 227.628C268.939 232.379 271.674 238.797 271.219 245.196C270.736 252.001 267.523 257.81 262.389 262.187C257.805 266.096 251.972 268.43 245.883 267.948C239.321 267.43 232.494 263.809 228.249 258.793C225.092 255.064 224.207 250.993 223.219 246.369C223.402 245.073 223.252 243.536 223.245 242.215C223.521 237.114 226.397 231.532 229.746 227.769C234.418 222.519 240.545 219.693 247.496 219.272Z"/>
	<path fill="#F5EFBE" transform="scale(2.85569 2.85569)" d="M231.141 243.238C231.124 242.805 231.115 242.853 231.135 242.458C231.344 238.491 233.748 234.378 236.688 231.78C239.986 228.867 243.639 227.855 247.979 228.098C247.934 230.356 247.747 232.714 248.029 234.957C245.386 234.885 242.402 236.334 240.516 238.145C239.569 239.054 238.535 240.49 238.447 241.847C238.421 242.241 238.515 242.652 238.592 243.036C236.113 242.821 233.623 243.231 231.141 243.238Z"/>
	<path fill="#EEE3B5" transform="scale(2.85569 2.85569)" d="M247.979 228.098C252.218 228.663 256.799 230.018 259.564 233.526C261.669 236.195 262.727 239.923 262.836 243.281C261.15 243.073 258.272 242.441 256.792 243.46C256.441 243.468 256.148 243.382 255.807 243.303L255.497 242.486C252.989 242.406 250.453 241.828 247.991 242.551C245.275 243.271 241.953 242.862 239.111 243.18L238.592 243.036C238.515 242.652 238.421 242.241 238.447 241.847C238.535 240.49 239.569 239.054 240.516 238.145C242.402 236.334 245.386 234.885 248.029 234.957C247.747 232.714 247.934 230.356 247.979 228.098Z"/>
	<path fill="#889A8F" transform="scale(2.85569 2.85569)" d="M248.211 235.007C251.252 236.638 254.247 237.985 255.292 241.603C255.377 241.898 255.443 242.184 255.497 242.486C252.989 242.406 250.453 241.828 247.991 242.551C248.165 240.072 247.82 237.44 248.211 235.007Z"/>
	<defs>
		<linearGradient id="gradient_13" gradientUnits="userSpaceOnUse" x1="253.34808" y1="258.72418" x2="243.4361" y2="238.02399">
			<stop offset="0" stop-color="#95A9A5"/>
			<stop offset="1" stop-color="#D3D0BB"/>
		</linearGradient>
	</defs>
	<path fill="url(#gradient_13)" transform="scale(2.85569 2.85569)" d="M247.991 242.551C250.453 241.828 252.989 242.406 255.497 242.486L255.807 243.303C256.148 243.382 256.441 243.468 256.792 243.46C258.272 242.441 261.15 243.073 262.836 243.281C262.501 248.42 261.49 253.363 257.426 256.903C254.101 259.8 250.307 260.658 245.998 260.319C241.853 259.992 238.153 258.218 235.481 254.998C232.665 251.604 231.337 247.607 231.141 243.238C233.623 243.231 236.113 242.821 238.592 243.036L239.111 243.18C241.953 242.862 245.275 243.271 247.991 242.551Z"/>
	<path fill="#F5EFBE" transform="scale(2.85569 2.85569)" d="M255.807 243.303C256.148 243.382 256.441 243.468 256.792 243.46C256.826 246.485 256.923 248.814 254.66 251.176C253.203 252.697 250.556 253.95 248.419 253.966C248.326 253.967 248.233 253.955 248.14 253.949C247.51 254.136 246.869 254.325 246.207 254.338C244.692 254.367 243.547 254.202 242.454 253.133C241.721 252.416 240.562 251.841 240.1 250.943L240.348 250.79C240.81 250.936 240.68 250.836 241.005 251.142C241.591 251.692 242.126 252.211 242.766 252.702L243.079 252.632L242.991 251.852C242.275 251.059 241.818 249.948 241.199 249.056L241.305 248.66C242.969 250.185 244.52 251.354 246.876 251.508C249.024 251.649 251.254 250.731 252.861 249.336C254.662 247.771 255.622 245.658 255.807 243.303Z"/>
	<path fill="#3C505D" transform="scale(2.85569 2.85569)" d="M247.991 242.551C250.453 241.828 252.989 242.406 255.497 242.486L255.807 243.303C255.622 245.658 254.662 247.771 252.861 249.336C251.254 250.731 249.024 251.649 246.876 251.508C244.52 251.354 242.969 250.185 241.305 248.66C240.046 246.879 239.514 245.306 239.111 243.18C241.953 242.862 245.275 243.271 247.991 242.551Z"/>
	<defs>
		<linearGradient id="gradient_14" gradientUnits="userSpaceOnUse" x1="254.65466" y1="270.91376" x2="242.58302" y2="326.5148">
			<stop offset="0" stop-color="#1D1238"/>
			<stop offset="1" stop-color="#364755"/>
		</linearGradient>
	</defs>
	<path fill="url(#gradient_14)" transform="scale(2.85569 2.85569)" d="M208.694 266.909L208.492 266.645C209.243 266.041 213.749 262.019 213.958 261.474C214.294 260.598 212.398 257.924 212.026 257.031C211.748 256.365 211.601 256.028 211.88 255.355C213.016 258.188 214.495 260.744 216.057 263.354C220.699 271.11 225.064 274.829 233.485 278.407C242.203 282.111 252.64 281.729 261.339 278.162C262.771 277.575 264.203 276.974 265.599 276.308C266.386 276.936 267.239 277.518 267.96 278.219C269.508 279.723 271.954 282.968 273.718 283.958C275.487 281.147 278.453 279.236 279.993 276.239C282.404 279.236 285.677 281.671 288.454 284.343C291.608 287.377 294.522 290.637 297.535 293.808C298.729 295.064 300.828 296.835 301.478 298.413C299.843 302.164 295.858 302.662 294.187 307.117C294.176 307.146 294.159 307.171 294.145 307.199C295.067 308.838 294.339 309.495 295.162 310.608C293.933 311.553 292.707 312.607 291.401 313.438C286.989 316.424 281.828 319.521 276.814 321.338C272.15 323.028 266.842 324.018 261.981 325.068Q261.285 325.248 260.575 325.358C241.766 328.235 217.665 324.35 202.315 312.906L202.661 312.838L202.59 312.578C201.391 311.99 200.554 311 199.44 310.299C198.957 309.995 198.655 309.841 198.314 309.364C198.707 309.098 199.014 308.878 199.308 308.5C200.817 306.556 205.975 303.029 206.39 300.965C204.323 302.88 202.485 305.008 200.321 306.828C198 303.581 195.253 300.891 192.655 297.894Q188.693 293.364 184.513 289.033C187.971 286.317 191.563 283.241 194.691 280.156C196.642 278.233 198.407 276.129 200.39 274.236C203.067 271.68 206.117 269.585 208.694 266.909Z"/>
	<path fill="#889A8F" transform="scale(2.85569 2.85569)" d="M247.44 291.639C250.924 292.443 254.852 292.818 258.426 292.741Q258.542 307.411 258.26 322.078C254.925 321.879 251.455 321.546 248.117 321.797C247.856 315.92 247.902 310.004 247.899 304.122C247.898 299.995 247.986 295.735 247.44 291.639Z"/>
	<path fill="#A5B19E" transform="scale(2.85569 2.85569)" d="M237.755 290.915C240.944 291.186 244.293 291.14 247.44 291.639C247.986 295.735 247.898 299.995 247.899 304.122C247.902 310.004 247.856 315.92 248.117 321.797C244.657 322.013 241.127 321.784 237.666 321.659C236.793 311.525 237.517 301.077 237.755 290.915Z"/>
	<path fill="#889A8F" transform="scale(2.85569 2.85569)" d="M273.718 283.958C275.487 281.147 278.453 279.236 279.993 276.239C282.404 279.236 285.677 281.671 288.454 284.343C291.608 287.377 294.522 290.637 297.535 293.808C298.729 295.064 300.828 296.835 301.478 298.413C299.843 302.164 295.858 302.662 294.187 307.117C294.176 307.146 294.159 307.171 294.145 307.199C291.586 303.542 288.242 300.548 285.313 297.197C281.272 292.574 278.275 288.342 273.718 283.958Z"/>
	<path fill="#889A8F" transform="scale(2.85569 2.85569)" d="M215.969 275.056C217.744 277.933 219.361 280.684 221.723 283.129C219.457 286.139 217.265 289.274 214.724 292.057C212.037 295 208.796 297.821 206.39 300.965C204.323 302.88 202.485 305.008 200.321 306.828C198 303.581 195.253 300.891 192.655 297.894C194.224 296.415 195.999 295.163 197.591 293.696C200.797 290.742 203.764 287.518 206.903 284.491C209.72 281.774 212.934 279.144 215.435 276.13C215.738 275.765 215.852 275.505 215.969 275.056Z"/>
	<path fill="#BABFA5" transform="scale(2.85569 2.85569)" d="M208.694 266.909C209.374 266.5 209.955 266.047 210.561 265.536C211.99 268.919 214.024 271.955 215.969 275.056C215.852 275.505 215.738 275.765 215.435 276.13C212.934 279.144 209.72 281.774 206.903 284.491C203.764 287.518 200.797 290.742 197.591 293.696C195.999 295.163 194.224 296.415 192.655 297.894Q188.693 293.364 184.513 289.033C187.971 286.317 191.563 283.241 194.691 280.156C196.642 278.233 198.407 276.129 200.39 274.236C203.067 271.68 206.117 269.585 208.694 266.909Z"/>
	<path fill="#3C505D" transform="scale(2.85569 2.85569)" d="M261.981 325.068C261.78 324.644 261.731 324.242 261.687 323.778L261.652 323.392C261.278 319.492 261.531 314.811 261.972 310.903C262.556 305.741 265.924 303.916 269.753 301.184Q272.556 299.142 275.268 296.98C278.097 299.363 280.761 302.059 283.238 304.805C284.961 306.715 288.132 311.167 290.09 312.417C290.575 312.727 290.971 313.059 291.401 313.438C286.989 316.424 281.828 319.521 276.814 321.338C272.15 323.028 266.842 324.018 261.981 325.068Z"/>
</svg>
